<?xml version="1.0" standalone="no"?>
<!DOCTYPE svg PUBLIC "-//W3C//DTD SVG 20010904//EN"
 "http://www.w3.org/TR/2001/REC-SVG-20010904/DTD/svg10.dtd">
<svg version="1.0" xmlns="http://www.w3.org/2000/svg"
 width="512.000000pt" height="512.000000pt" viewBox="0 0 512.000000 512.000000"
 preserveAspectRatio="xMidYMid meet">
<metadata>
Created by potrace 1.16, written by Peter Selinger 2001-2019
</metadata>
<g transform="translate(0.000000,512.000000) scale(0.100000,-0.100000)"
fill="#000000" stroke="none">
<path d="M2813 4596 c-456 -87 -793 -454 -838 -916 l-7 -74 -25 84 c-84 292
-318 519 -622 602 -62 17 -105 21 -226 21 -133 0 -160 -3 -238 -27 -164 -49
-285 -123 -403 -249 -84 -87 -143 -182 -183 -293 -43 -118 -55 -202 -49 -350
5 -108 10 -144 36 -224 40 -121 105 -232 189 -320 36 -39 64 -72 62 -74 -2 -1
-25 -17 -51 -34 -101 -69 -190 -199 -223 -327 -23 -91 -22 -1378 1 -1469 40
-155 158 -303 296 -370 143 -70 59 -66 1440 -66 861 0 1263 3 1300 11 29 6 91
29 137 51 135 64 239 183 298 340 10 28 18 92 22 181 l6 138 434 -362 434
-361 49 5 c62 8 141 50 184 100 67 79 64 30 64 1076 l0 946 -24 51 c-42 90
-128 155 -226 169 l-45 6 -435 -291 -435 -290 -6 57 c-11 116 -63 231 -145
322 l-45 50 47 32 c123 84 260 241 328 374 200 393 133 855 -168 1172 -142
149 -299 243 -494 295 -100 26 -335 34 -439 14z m319 -300 c222 -43 414 -189
513 -390 60 -121 78 -198 78 -321 0 -258 -123 -478 -344 -617 -311 -196 -740
-118 -956 175 -104 142 -147 269 -147 437 -1 178 47 318 153 450 173 216 439
316 703 266z m-1924 -292 c153 -31 280 -116 367 -244 57 -84 81 -149 97 -261
40 -268 -160 -553 -437 -624 -70 -18 -182 -20 -257 -4 -74 15 -185 70 -251
124 -67 54 -146 170 -177 256 -30 88 -37 223 -16 313 53 225 246 408 469 445
80 13 121 12 205 -5z m871 -879 c27 -55 79 -137 115 -182 l66 -83 -246 0
c-193 0 -244 3 -238 13 4 6 20 28 35 47 77 99 142 260 161 401 l12 86 23 -91
c13 -49 45 -135 72 -191z m1183 -598 c32 -16 75 -48 97 -73 74 -84 72 -62 69
-790 l-3 -649 -22 -42 c-30 -55 -84 -107 -142 -135 l-46 -23 -1219 -3 c-1068
-2 -1226 0 -1272 13 -75 22 -156 98 -184 172 -20 54 -21 68 -18 702 l3 646 27
51 c45 85 121 141 213 154 27 4 588 7 1245 6 l1195 -1 57 -28z m1338 -847 l0
-860 -435 362 -435 363 0 211 0 211 428 286 c235 157 430 286 435 286 4 1 7
-386 7 -859z"/>
<path d="M2223 1391 c-99 -61 -93 -210 11 -260 40 -20 60 -21 365 -21 277 0
328 2 357 16 47 22 76 67 82 124 5 53 -10 90 -53 130 l-27 25 -351 3 c-335 2
-354 1 -384 -17z"/>
</g>
</svg>
